<svg width="900" height="900" viewBox="0 0 900 900" xmlns="http://www.w3.org/2000/svg" role="img" aria-label="Placeholder product mockup">
  <defs>
    <radialGradient id="bg-print" cx="50%" cy="42%" r="70%">
      <stop offset="0%" stop-color="#FFFDF9"/>
      <stop offset="100%" stop-color="#F3E7D8"/>
    </radialGradient>
    <linearGradient id="shade-print" x1="0" y1="0" x2="0" y2="1">
      <stop offset="0%" stop-color="#000000" stop-opacity="0"/>
      <stop offset="100%" stop-color="#000000" stop-opacity="0.12"/>
    </linearGradient>
  </defs>
  <rect width="900" height="900" fill="url(#bg-print)"/>
  <ellipse cx="450" cy="774" rx="252.00000000000003" ry="31.500000000000004" fill="#263238" opacity="0.12"/>
  
  <g transform="translate(450,450)">
    <rect x="-210" y="-260" width="420" height="520" rx="4" fill="#FBF6EE" stroke="#263238" stroke-opacity="0.7" stroke-width="14"/>
    <rect x="-176" y="-226" width="352" height="452" fill="#263238"/>
    <g stroke="#FFF8F0" stroke-width="5" fill="none" stroke-linecap="round" stroke-linejoin="round" opacity="0.9">
      <circle cx="-60" cy="-60" r="46"/>
      <path d="M-118,-14 C-118,-60 -95,-80 -60,-80 C-25,-80 -2,-60 -2,-14 Z"/>
      <circle cx="60" cy="-80" r="34"/>
      <path d="M14,-30 C14,-64 33,-80 60,-80 C87,-80 106,-64 106,-30 Z"/>
      <circle cx="0" cy="70" r="22"/>
      <path d="M-30,116 C-30,88 -18,72 0,72 C18,72 30,88 30,116 Z"/>
    </g>
  </g>
</svg>
